Coordinates
version=1
nRows=27
nColumns=26
inDegrees=yes

Units are S.I. units (second, meters, Newtons, ...)
If the header above contains a line with 'inDegrees', this indicates whether rotational values are in degrees (yes) or radians (no).

endheader
time	pelvis_tilt	pelvis_list	pelvis_rotation	pelvis_tx	pelvis_ty	pelvis_tz	hip_flexion_r	hip_adduction_r	hip_rotation_r	knee_angle_r	knee_angle_r_beta	ankle_angle_r	subtalar_angle_r	mtp_angle_r	hip_flexion_l	hip_adduction_l	hip_rotation_l	knee_angle_l	knee_angle_l_beta	ankle_angle_l	subtalar_angle_l	mtp_angle_l	lumbar_extension	lumbar_bending	lumbar_rotation
      0.33600000	     -1.90892507	     -4.64426715	     -2.36244783	     -2.46406159	      1.02060850	      0.16600501	     28.92971255	      1.65846958	    -28.01695008	     28.04028901	      0.48939537	     -8.35796637	      0.00000000	     26.12130289	    -14.09747441	      0.31856274	     -4.95474779	    103.10204310	      1.79947012	     -5.57269916	      0.00000000	     49.89838730	    -10.07339206	      8.87938491	     -4.45211405
      0.34000000	     -1.53119438	     -4.53173970	     -2.73919019	     -2.43817651	      1.01831005	      0.16648414	     27.58328084	      1.81309435	    -26.62235616	     28.71199413	      0.50111883	     -7.41986893	      0.00000000	     24.86279352	    -13.30391893	      0.18491151	     -5.09414966	    106.01719479	      1.85034911	     -3.83317687	      0.00000000	     49.43361962	    -10.53750120	      8.74600336	     -3.64971039
      0.34400000	     -1.23397329	     -4.34788673	     -2.97400166	     -2.41225413	      1.01564771	      0.16706307	     26.04465578	      1.87589390	    -25.34964986	     28.66463619	      0.50029228	     -8.17574971	      0.00000000	     10.22335959	    -12.31120571	      0.11244194	     -4.82414294	    108.92484507	      1.90109718	     -2.17165813	      0.00000000	     50.13337073	    -10.88320542	      8.52063217	     -3.01803536
      0.34800000	     -1.00838536	     -4.26727773	     -3.30215242	     -2.38658830	      1.01282687	      0.16766001	     24.70968400	      2.13006248	    -23.30554941	     29.50370296	      0.51493676	     -4.26008750	      0.00000000	      8.86564311	    -11.20543589	     -0.11318550	     -4.75503203	    111.81184908	      1.95148491	     -0.48843464	      0.00000000	     49.65057481	    -11.21019232	      8.41337033	     -2.24809493
      0.35200000	     -0.60886007	     -4.34969076	     -3.79385583	     -2.36066973	      1.01022407	      0.16925693	     23.06944831	      2.65672919	    -21.79160034	     30.37101540	      0.53007422	     -0.44798452	      0.00000000	      7.82549013	    -10.32037412	     -0.53616550	     -4.69653699	    114.50288762	      1.99845239	      0.90260421	      0.00000000	     49.24602831	    -11.75455512	      8.35609034	     -1.27278287
      0.35600000	     -0.44988553	     -4.43140231	     -4.05498933	     -2.33550005	      1.00722998	      0.17003599	     21.78863569	      3.04867965	    -20.73098860	     31.42610282	      0.54848897	      2.87753273	      0.00000000	      7.27762031	     -8.96601364	     -0.94643001	     -4.29237047	    117.33246710	      2.04783787	      2.42708230	      0.00000000	     48.91764895	    -12.12854360	      8.40688492	     -0.51922278
      0.36000000	     -0.30250465	     -4.43868136	     -4.16965531	     -2.31092749	      1.00431123	      0.17045364	     20.55799614	      3.35463695	    -19.53878441	     32.52582195	      0.56768268	      6.46317130	      0.00000000	      7.30191088	     -7.40594152	     -1.21660245	     -3.57300475	    120.15234537	      2.09705403	      3.99767265	      0.00000000	     49.02580350	    -12.55527945	      8.42774456	      0.09973396
      0.36400000	      0.03984603	     -4.45579916	     -4.53134897	     -2.28625528	      1.00187992	      0.17153507	     19.02961624	      3.80175054	    -18.24755791	     33.41158316	      0.58314213	      9.50706364	      0.00000000	      9.07083863	     -6.02423895	     -1.47244150	     -2.97869688	    122.76190911	      2.14259951	      5.57354301	      0.00000000	     49.81099755	    -13.24918876	      8.35511883	      0.98119029
      0.36800000	      0.10814429	     -4.85901070	     -4.71806266	     -2.26178193	      0.99891452	      0.17265725	     17.73010981	      4.61169721	    -17.43754766	     33.98844407	      0.59321026	     12.08769545	      0.00000000	      8.98317744	     -4.31560575	     -2.25564102	     -2.15231424	    125.37821721	      2.18826270	      6.96154940	      0.00000000	     49.57625786	    -13.68704409	      8.72247792	      1.73820168
      0.37200000	      0.34531247	     -5.04019571	     -5.03347623	     -2.23763090	      0.99652471	      0.17359783	     16.36859775	      5.08447430	    -16.60329312	     34.78979857	      0.60719653	     14.35520296	      0.00000000	      8.98800568	     -2.62291327	     -2.73487516	     -1.36816552	    127.78021164	      2.23018541	      8.25129215	      0.00000000	     49.41910838	    -14.38087044	      8.82011308	      2.59557018
      0.37600000	      0.66237432	     -5.17523207	     -5.43213400	     -2.21311789	      0.99442387	      0.17486948	     14.90339222	      5.45404825	    -15.91251225	     35.62581961	      0.62178785	     16.54892048	      0.00000000	      9.06368725	     -1.02057951	     -3.16494872	     -0.65662878	    129.87252905	      2.26670324	      9.73231981	      0.00000000	     49.36999748	    -15.14442546	      8.79066924	      3.53321616
      0.38000000	      0.75260763	     -5.29821377	     -5.79480235	     -2.18911217	      0.99230397	      0.17607628	     13.64559279	      5.82142143	    -15.19725495	     36.28809696	      0.63334677	     18.33803909	      0.00000000	      9.16777694	      1.02899810	     -3.62556149	      0.30351320	    131.91208106	      2.30230014	     10.96188399	      0.00000000	     49.43427981	    -15.73559802	      8.74515116	      4.35277869
      0.38400000	      0.70419664	     -5.33799535	     -6.32199164	     -2.16495471	      0.99040740	      0.17719075	     12.43554218	      6.08740446	    -14.43734311	     36.80447249	      0.64235922	     20.01198828	      0.00000000	      9.37477116	      3.28412156	     -3.99646484	      1.05660970	    133.67526692	      2.33307354	     12.27562613	      0.00000000	     49.64407731	    -16.16959902	      8.62359829	      5.36212748
      0.38800000	      0.54178579	     -5.38743760	     -6.61667603	     -2.14011935	      0.98855811	      0.17865923	     11.07114824	      6.33900357	    -14.01081927	     36.86203507	      0.64336388	     21.40049856	      0.00000000	      9.70899061	      5.69693554	     -4.51754530	      2.14674695	    135.19053526	      2.35951996	     13.44857320	      0.00000000	     50.02413825	    -16.33412643	      8.48228611	      6.05300647
      0.39200000	      0.14720477	     -4.64117586	     -8.15623934	     -2.11784640	      0.98685612	      0.17972591	     10.38338633	      5.87455106	    -11.99138016	     37.39157487	      0.65260609	     22.15999526	      0.00000000	      9.99099215	      8.64027777	     -4.12715244	      1.81599474	    136.43606950	      2.38125863	     14.41619002	      0.00000000	     50.36011329	    -16.63904430	      7.42140736	      7.80310704
      0.39600000	     -0.28446140	     -4.25457477	     -8.78751235	     -2.09307201	      0.98498131	      0.18121553	      9.43924423	      5.63500725	    -11.16739322	     37.89524187	      0.66139674	     24.00674735	      0.00000000	     14.30630444	     11.54860662	     -4.35348111	      2.32926692	    137.57261715	      2.40109513	     16.62818473	      0.00000000	     55.42454036	    -16.39920811	      6.80641261	      8.71215044
      0.40000000	     -0.13701100	     -4.54343380	     -8.66138136	     -2.06659803	      0.98443476	      0.18282266	      7.13642142	      5.98602829	    -11.06656467	     36.90717984	      0.64415181	     24.45962181	      0.00000000	     14.40356541	     13.53086658	     -5.16590009	      3.73452023	    138.17048475	      2.41152989	     17.53444259	      0.00000000	     55.19837951	    -16.60908602	      6.88589746	      9.14680156
      0.40400000	     -0.20151083	     -3.96654809	     -9.18045733	     -2.04148137	      0.98361172	      0.18404291	      5.42647142	      5.36319343	    -10.30191110	     36.32422222	      0.63397728	     24.60775588	      0.00000000	     14.44401523	     15.99266021	     -4.97512946	      4.25406235	    138.55492939	      2.41823971	     18.08752953	      0.00000000	     55.02032826	    -16.63696406	      6.04004420	      9.99200242
      0.40800000	     -0.35571556	     -3.23308292	     -9.70112477	     -2.01615064	      0.98276713	      0.18532804	      3.83027518	      4.56414304	     -9.41613985	     35.71728293	      0.62338419	     24.70630742	      0.00000000	     14.49855269	     18.53997934	     -4.61361369	      4.65688254	    138.72011170	      2.42112269	     18.75822517	      0.00000000	     54.80975735	    -16.45432058	      5.03783246	     10.81585072
      0.41200000	     -0.51778982	     -2.38655949	    -10.13360837	     -1.99057276	      0.98214020	      0.18639264	      2.20787465	      3.62459066	     -8.54277486	     34.98592330	      0.61061955	     24.68638350	      0.00000000	     14.62544053	     21.16443131	     -4.07014619	      4.97483572	    138.69807498	      2.42073807	     19.38419610	      0.00000000	     54.65163405	    -16.16840433	      3.95904327	     11.56892920
      0.41600000	     -0.75738944	     -1.35400346	    -10.47289499	     -1.96461321	      0.98146815	      0.18750824	      0.69479081	      2.44196684	     -7.85057312	     34.28640008	      0.59841057	     24.32180675	      0.00000000	     14.94592771	     23.86463624	     -3.36591024	      5.13138114	    138.46312726	      2.41663746	     20.12983215	      0.00000000	     54.76382221	    -15.65324712	      2.68903738	     12.26979586
      0.42000000	     -0.89838227	     -0.49255123	    -10.60673370	     -1.93853482	      0.98112956	      0.18812294	     -1.09328429	      1.39112311	     -7.41005963	     33.21238151	      0.57966541	     24.11263454	      0.00000000	     15.19673214	     26.46988402	     -2.70731378	      5.46173310	    138.06737299	      2.40973025	     20.39093390	      0.00000000	     54.60694257	    -15.28272206	      1.67338546	     12.86995884
      0.42400000	     -1.12374816	      0.54241096	    -10.70808577	     -1.91184550	      0.98080518	      0.18878765	     -2.86368418	      0.15875057	     -7.05236822	     31.92605874	      0.55721484	     23.39097874	      0.00000000	     15.62477069	     29.19250390	     -1.78970690	      5.54002536	    137.43806834	      2.39874681	     20.88353501	      0.00000000	     54.46142551	    -14.67234066	      0.48926549	     13.33555894
      0.42800000	     -1.39085086	      1.54051874	    -10.70439061	     -1.88489068	      0.98050757	      0.18942409	     -4.63884202	     -1.06007189	     -6.99239682	     30.56668222	      0.53348925	     22.41475806	      0.00000000	     16.13090303	     31.86271484	     -1.03197419	      5.53914361	    136.61310432	      2.38434847	     21.30487948	      0.00000000	     54.34040003	    -13.97884759	     -0.64130944	     13.84344125
      0.43200000	     -1.56980727	      2.51691097	    -10.55357765	     -1.85764658	      0.98054099	      0.18968875	     -6.58545299	     -2.29177138	     -7.27453211	     29.02942101	      0.50665898	     20.24437000	      0.00000000	     17.14474411	     34.33602819	     -0.20602678	      5.46816026	    135.53501902	      2.36553233	     21.95158190	      0.00000000	     54.34772114	    -13.36542519	     -1.71655044	     14.22505803
      0.43600000	     -1.93178598	      3.40615996	    -10.38827071	     -1.83015993	      0.98042746	      0.19014365	     -8.37045978	     -3.35174771	     -7.44504850	     27.44214579	      0.47895580	     19.07125010	      0.00000000	     17.78270466	     36.98508180	      0.43221845	      5.28856506	    134.39817965	      2.34569074	     22.45765774	      0.00000000	     54.20597595	    -12.52397855	     -2.67741022	     14.66785951
      0.44000000	     -2.17207059	      4.30903058	    -10.06469900	     -1.80245446	      0.98062098	      0.19016694	    -10.32817866	     -4.49999613	     -8.22261616	     25.74158136	      0.44927535	     16.21117102	      0.00000000	     19.03084508	     39.44361823	      1.21808753	      5.02745222	    133.02853078	      2.32178586	     22.97568755	      0.00000000	     54.13310649	    -11.82489494	     -3.63852052	     14.96705698
